<svg width="25" height="12" viewBox="0 0 25 12" fill="none" xmlns="http://www.w3.org/2000/svg">
<path opacity="0.35" d="M2.66699 0.833496H19.333C20.5296 0.833496 21.5 1.80387 21.5 3.00049V9.00049C21.4998 10.197 20.5295 11.1665 19.333 11.1665H2.66699C1.47048 11.1665 0.500176 10.197 0.5 9.00049V3.00049L0.510742 2.77881C0.621596 1.68615 1.54509 0.833496 2.66699 0.833496Z" stroke="black"/>
<path opacity="0.4" d="M23 4.00024V8.00024C23.8047 7.66147 24.328 6.87338 24.328 6.00024C24.328 5.12711 23.8047 4.33902 23 4.00024Z" fill="black"/>
<path d="M2 3.66683C2 2.93045 2.59695 2.3335 3.33333 2.3335H18.6667C19.403 2.3335 20 2.93045 20 3.66683V8.3335C20 9.06987 19.403 9.66683 18.6667 9.66683H3.33333C2.59695 9.66683 2 9.06988 2 8.3335V3.66683Z" fill="black"/>
</svg>
