<svg width="36" height="36" viewBox="0 0 36 36" fill="none" xmlns="http://www.w3.org/2000/svg">
<g clip-path="url(#clip0_3215_693)">
<circle cx="18" cy="18" r="18" fill="#E8EAED"/>
<path d="M7 18C7 18.8148 7.67025 19.4719 8.47192 19.4719H16.5281V27.5281C16.5281 28.3297 17.1983 29 18 29C18.8017 29 19.4719 28.3297 19.4719 27.5281V19.4719H27.5281C28.3298 19.4719 29 18.8148 29 18C29 17.1983 28.3298 16.5281 27.5281 16.5281H19.4719V8.47192C19.4719 7.67025 18.8017 7 18 7C17.1983 7 16.5281 7.67025 16.5281 8.47192V16.5281H8.47192C7.67025 16.5281 7 17.1983 7 18Z" fill="#80858A"/>
</g>
<defs>
<clipPath id="clip0_3215_693">
<rect width="36" height="36" fill="white"/>
</clipPath>
</defs>
</svg>
