<svg width="26" height="26" viewBox="0 0 26 26" fill="none" xmlns="http://www.w3.org/2000/svg">
<path d="M0 13.0064C0 13.3933 0.178552 13.7801 0.494453 14.0638L9.55943 22.5616C9.88906 22.8582 10.2462 23 10.6445 23C11.5098 23 12.1416 22.4197 12.1416 21.6331C12.1416 21.2205 11.9768 20.8723 11.6883 20.6144L8.59799 17.6744L4.6149 14.2573L7.81511 14.4378H24.4617C25.3682 14.4378 26 13.8446 26 13.0064C26 12.1554 25.3682 11.5622 24.4617 11.5622H7.81511L4.62863 11.7427L8.59799 8.3256L11.6883 5.38556C11.9768 5.12766 12.1416 4.7795 12.1416 4.36686C12.1416 3.58027 11.5098 3 10.6445 3C10.2462 3 9.87533 3.14184 9.51822 3.46422L0.494453 11.9362C0.178552 12.2199 0 12.6067 0 13.0064Z" fill="#80858A"/>
</svg>
