<svg width="27" height="26" viewBox="0 0 27 26" fill="none" xmlns="http://www.w3.org/2000/svg">
<g clip-path="url(#clip0_3215_691)">
<path d="M26.5 13.0064C26.5 12.6067 26.3214 12.2199 26.0055 11.9362L16.9818 3.46422C16.6247 3.14184 16.2538 3 15.8693 3C14.9902 3 14.3584 3.58027 14.3584 4.36686C14.3584 4.7795 14.537 5.12766 14.8117 5.38556L17.902 8.3256L21.8851 11.7427L18.6986 11.5622H2.05203C1.1318 11.5622 0.5 12.1554 0.5 13.0064C0.5 13.8446 1.1318 14.4378 2.05203 14.4378H18.6986L21.8851 14.2573L17.902 17.6744L14.8117 20.6144C14.537 20.8723 14.3584 21.2205 14.3584 21.6331C14.3584 22.4197 14.9902 23 15.8693 23C16.2538 23 16.6247 22.8582 16.9543 22.5616L26.0055 14.0638C26.3214 13.7801 26.5 13.3933 26.5 13.0064Z" fill="#80858A"/>
</g>
<defs>
<clipPath id="clip0_3215_691">
<rect width="26" height="26" fill="white" transform="translate(0.5)"/>
</clipPath>
</defs>
</svg>
