<svg width="18" height="12" viewBox="0 0 18 12" fill="none" xmlns="http://www.w3.org/2000/svg">
<path d="M2.66699 7.33374C3.21914 7.33391 3.66699 7.78156 3.66699 8.33374V10.3337C3.66682 10.8858 3.21903 11.3336 2.66699 11.3337H1.66699C1.11482 11.3337 0.667168 10.8859 0.666992 10.3337V8.33374C0.666992 7.78146 1.11471 7.33374 1.66699 7.33374H2.66699ZM7.33301 5.33374C7.88529 5.33374 8.33301 5.78146 8.33301 6.33374V10.3337C8.33283 10.8859 7.88518 11.3337 7.33301 11.3337H6.33301C5.78099 11.3336 5.33318 10.8858 5.33301 10.3337V6.33374C5.33301 5.78157 5.78088 5.33392 6.33301 5.33374H7.33301ZM12 2.99976C12.5522 2.99976 12.9998 3.44762 13 3.99976V10.3337C12.9998 10.8859 12.5522 11.3337 12 11.3337H11C10.4478 11.3337 10.0002 10.8859 10 10.3337V3.99976C10.0002 3.44763 10.4478 2.99977 11 2.99976H12ZM16.667 0.666748C17.2191 0.666913 17.667 1.11456 17.667 1.66675V10.3337C17.6668 10.8858 17.219 11.3336 16.667 11.3337H15.667C15.1148 11.3337 14.6672 10.8859 14.667 10.3337V1.66675C14.667 1.11446 15.1147 0.666748 15.667 0.666748H16.667Z" fill="black"/>
</svg>
