<svg width="16" height="20" viewBox="0 0 16 20" fill="none" xmlns="http://www.w3.org/2000/svg">
<path d="M8.00402 12.9156C8.46305 12.9156 8.83502 12.514 8.83502 12.0538V3.76288L8.76379 2.53304L9.2149 3.16888L10.2517 4.33179C10.3862 4.49075 10.592 4.58277 10.7898 4.58277C11.1855 4.58277 11.5179 4.27322 11.5179 3.83818C11.5179 3.62065 11.4388 3.45333 11.2963 3.29437L8.65299 0.608802C8.43139 0.382913 8.22562 0.307617 8.00402 0.307617C7.79034 0.307617 7.57665 0.382913 7.36297 0.608802L4.71961 3.29437C4.56924 3.45333 4.4901 3.62065 4.4901 3.83818C4.4901 4.27322 4.8225 4.58277 5.2103 4.58277C5.41607 4.58277 5.62184 4.49075 5.76429 4.33179L6.79314 3.16888L7.25217 2.53304L7.18094 3.76288V12.0538C7.18094 12.514 7.545 12.9156 8.00402 12.9156ZM3.42959 19.6922H12.5705C14.3354 19.6922 15.2693 18.705 15.2693 16.8561V8.73244C15.2693 6.88349 14.3354 5.89628 12.5705 5.89628H10.4891V7.81215H12.4043C13.085 7.81215 13.4649 8.18026 13.4649 8.94159V16.6553C13.4649 17.4082 13.085 17.7764 12.4043 17.7764H3.59579C2.90725 17.7764 2.5432 17.4082 2.5432 16.6553V8.94159C2.5432 8.18026 2.90725 7.81215 3.59579 7.81215H5.54269V5.89628H3.42959C1.67263 5.89628 0.730835 6.88349 0.730835 8.73244V16.8561C0.730835 18.705 1.67263 19.6922 3.42959 19.6922Z" fill="#9AA0A6"/>
</svg>
