<svg width="17" height="17" viewBox="0 0 17 17" fill="none" xmlns="http://www.w3.org/2000/svg">
<path d="M5.68067 14.8933H11.1475C11.8882 14.8933 12.25 14.5158 12.25 13.69V9.3606C12.25 8.61739 11.9514 8.234 11.337 8.16911V6.68271C11.337 4.45901 9.91858 3.3855 8.41406 3.3855C6.90955 3.3855 5.49117 4.45901 5.49117 6.68271V8.19861C4.92841 8.28708 4.57812 8.66458 4.57812 9.3606V13.69C4.57812 14.5158 4.9399 14.8933 5.68067 14.8933ZM6.4157 6.55885C6.4157 5.07834 7.34023 4.29385 8.41406 4.29385C9.4879 4.29385 10.4124 5.07834 10.4124 6.55885V8.16322L6.4157 8.16911V6.55885Z" fill="black"/>
</svg>
