<svg width="16" height="12" viewBox="0 0 16 12" fill="none" xmlns="http://www.w3.org/2000/svg">
<path d="M6.12086 8.73117C7.39641 7.65239 9.26427 7.65235 10.5398 8.73117C10.604 8.7892 10.6416 8.87122 10.6433 8.95773C10.645 9.04414 10.6112 9.12763 10.5496 9.1882L8.55152 11.2038C8.49299 11.2629 8.41302 11.2966 8.32984 11.2966C8.2467 11.2965 8.16661 11.263 8.10816 11.2038L6.11109 9.1882C6.04943 9.12759 6.01557 9.04416 6.01734 8.95773C6.01917 8.87122 6.05664 8.78915 6.12086 8.73117ZM3.45484 6.04171C6.20301 3.48536 10.4596 3.48543 13.2078 6.04171C13.2697 6.10157 13.3054 6.18411 13.3064 6.27023C13.3073 6.35631 13.2732 6.43954 13.2127 6.5007L12.0574 7.66769C11.9384 7.78675 11.7458 7.78951 11.6238 7.67355C10.7213 6.85646 9.54724 6.40394 8.32984 6.40402C7.11334 6.40463 5.94058 6.85701 5.03883 7.67355C4.91676 7.78953 4.72422 7.78682 4.60523 7.66769L3.45093 6.5007C3.39013 6.43961 3.35637 6.35643 3.35718 6.27023C3.35812 6.18412 3.39289 6.10155 3.45484 6.04171ZM0.789802 3.36007C5.00483 -0.679303 11.6548 -0.679235 15.8699 3.36007C15.9308 3.42002 15.965 3.50213 15.9656 3.58761C15.9661 3.67307 15.933 3.75543 15.8728 3.81613L14.7166 4.98312C14.5975 5.10281 14.4039 5.10391 14.283 4.98605C12.6771 3.45946 10.5456 2.60822 8.32984 2.60812C6.114 2.60823 3.98273 3.4594 2.37672 4.98605C2.25586 5.10411 2.06215 5.10302 1.94312 4.98312L0.786872 3.81613C0.726728 3.75538 0.693536 3.6731 0.694099 3.58761C0.694716 3.50211 0.728792 3.41999 0.789802 3.36007Z" fill="black"/>
</svg>
